<svg
  xmlns="http://www.w3.org/2000/svg"
  viewBox="0 0 512 512"
  role="img"
  aria-label="Escudo de seguridad"
>
  <g fill="none" stroke="#A3A6A8" stroke-linecap="round" stroke-width="12">
    <path d="M10 301C-4 211 25 124 89 64C166-7 279-13 389 39" />
    <path d="M498 198C521 301 480 407 393 465C302 525 182 514 95 448" />
  </g>
  <g fill="#A3A6A8">
    <circle cx="416" cy="64" r="36" />
    <circle cx="76" cy="428" r="40" />
    <path d="M246 72C252 68 260 68 266 72C311 108 363 130 424 131C435 131 442 139 442 150C442 274 390 371 266 448C260 452 252 452 246 448C121 371 70 274 70 150C70 139 77 131 88 131C148 130 201 108 246 72Z" />
  </g>
  <g fill="#111314">
    <path d="M214 228V215C214 192 233 173 256 173C279 173 298 192 298 215V228H286V215C286 198 273 185 256 185C239 185 226 198 226 215V228H214Z" />
    <rect x="190" y="221" width="132" height="123" rx="29" />
  </g>
  <g fill="#A3A6A8">
    <circle cx="256" cy="264" r="13" />
    <path d="M250 272H262L271 310C272 315 268 319 263 319H249C244 319 240 315 241 310L250 272Z" />
  </g>
</svg>
